<svg width="381" height="253" viewBox="0 0 381 253" xmlns="http://www.w3.org/2000/svg" xmlns:xlink="http://www.w3.org/1999/xlink"><defs><filter x="-12.9%" y="-24.7%" width="125.9%" height="149.4%" filterUnits="objectBoundingBox" id="a"><feOffset in="SourceAlpha" result="shadowOffsetOuter1"/><feGaussianBlur stdDeviation="18" in="shadowOffsetOuter1" result="shadowBlurOuter1"/><feColorMatrix values="0 0 0 0 0 0 0 0 0 0 0 0 0 0 0 0 0 0 0.5 0" in="shadowBlurOuter1"/></filter><path d="M417.154 0l-200.6 207.145a37 37 0 01-2.198 2.092c-15.217 13.33-38.28 11.95-51.805-2.993l-.407-.457L0 65.05V0h417.154z" id="b"/></defs><g fill="none" fill-rule="evenodd"><g opacity=".5" transform="translate(-66)"><use fill="#000" filter="url(#a)" xlink:href="#b"/><use fill="#001124" xlink:href="#b"/></g><path d="M98.749 147.69c0 3.303-.893 4.31-4.315 4.31H93.17c-3.422 0-4.315-1.007-4.315-4.31v-4.814c0-3.303.893-4.31 4.315-4.31h1.264c3.422 0 4.315 1.007 4.315 4.31v.727h-2.753v-.69c0-1.642-.371-2.015-1.71-2.015h-.968c-1.339 0-1.71.373-1.71 2.014v4.74c0 1.642.371 2.016 1.71 2.016h.968c1.339 0 1.71-.374 1.71-2.015v-.822h-1.84v-2.071h4.593v2.93z" fill="#FFF"/><path d="M98.749 147.69c0 3.303-.893 4.31-4.315 4.31H93.17c-3.422 0-4.315-1.007-4.315-4.31v-4.814c0-3.303.893-4.31 4.315-4.31h1.264c3.422 0 4.315 1.007 4.315 4.31v.727h-2.753v-.69c0-1.642-.371-2.015-1.71-2.015h-.968c-1.339 0-1.71.373-1.71 2.014v4.74c0 1.642.371 2.016 1.71 2.016h.968c1.339 0 1.71-.374 1.71-2.015v-.822h-1.84v-2.071h4.593v2.93z"/><path d="M101.225 142.876c0-3.303.893-4.31 4.314-4.31h1.265c3.422 0 4.314 1.007 4.314 4.31v4.813c0 3.304-.892 4.31-4.314 4.31h-1.265c-3.421 0-4.314-1.006-4.314-4.31v-4.813zm2.753 4.777c0 1.641.37 2.015 1.71 2.015h.968c1.338 0 1.71-.374 1.71-2.015v-4.74c0-1.642-.372-2.015-1.71-2.015h-.968c-1.34 0-1.71.373-1.71 2.015v4.74z" fill="#FFF"/><path d="M101.225 142.876c0-3.303.893-4.31 4.314-4.31h1.265c3.422 0 4.314 1.007 4.314 4.31v4.813c0 3.304-.892 4.31-4.314 4.31h-1.265c-3.421 0-4.314-1.006-4.314-4.31v-4.813zm2.753 4.777c0 1.641.37 2.015 1.71 2.015h.968c1.338 0 1.71-.374 1.71-2.015v-4.74c0-1.642-.372-2.015-1.71-2.015h-.968c-1.34 0-1.71.373-1.71 2.015v4.74z"/><path fill="#FFF" d="M116.543 138.734v10.747h5.338v2.35h-8.09v-13.097z"/><path d="M116.543 138.734v10.747h5.338v2.35h-8.09v-13.097z"/><path d="M123.989 142.876c0-3.303.892-4.31 4.314-4.31h1.264c3.422 0 4.315 1.007 4.315 4.31v4.813c0 3.304-.893 4.31-4.315 4.31h-1.264c-3.422 0-4.314-1.006-4.314-4.31v-4.813zm2.752 4.777c0 1.641.372 2.015 1.71 2.015h.968c1.339 0 1.711-.374 1.711-2.015v-4.74c0-1.642-.372-2.015-1.711-2.015h-.967c-1.34 0-1.711.373-1.711 2.015v4.74z" fill="#FFF"/><path d="M123.989 142.876c0-3.303.892-4.31 4.314-4.31h1.264c3.422 0 4.315 1.007 4.315 4.31v4.813c0 3.304-.893 4.31-4.315 4.31h-1.264c-3.422 0-4.314-1.006-4.314-4.31v-4.813zm2.752 4.777c0 1.641.372 2.015 1.71 2.015h.968c1.339 0 1.711-.374 1.711-2.015v-4.74c0-1.642-.372-2.015-1.711-2.015h-.967c-1.34 0-1.711.373-1.711 2.015v4.74z"/><path fill="#FFF" d="M142.523 150.656l-3.217-6.567v7.743h-2.753v-13.098h2.753l3.83 7.93 3.832-7.93h2.752v13.098h-2.752v-7.743l-3.217 6.567z"/><path d="M142.523 150.656l-3.217-6.567v7.743h-2.753v-13.098h2.753l3.83 7.93 3.832-7.93h2.752v13.098h-2.752v-7.743l-3.217 6.567z"/><path d="M152.594 151.832v-13.098h5.3c2.66 0 3.775 1.044 3.775 3.06v1.268c0 1.288-.502 1.922-1.451 2.166 1.06.167 1.637.857 1.637 2.294v1.25c0 2.034-1.116 3.06-3.775 3.06h-5.486zm5.114-7.65c.837 0 1.301-.335 1.301-1.195v-.801c0-.86-.464-1.194-1.301-1.194h-2.455v3.19h2.455zm-2.455 2.071v3.321h2.64c.838 0 1.302-.335 1.302-1.194v-.933c0-.858-.464-1.194-1.301-1.194h-2.64z" fill="#FFF"/><path d="M152.594 151.832v-13.098h5.3c2.66 0 3.775 1.044 3.775 3.06v1.268c0 1.288-.502 1.922-1.451 2.166 1.06.167 1.637.857 1.637 2.294v1.25c0 2.034-1.116 3.06-3.775 3.06h-5.486zm5.114-7.65c.837 0 1.301-.335 1.301-1.195v-.801c0-.86-.464-1.194-1.301-1.194h-2.455v3.19h2.455zm-2.455 2.071v3.321h2.64c.838 0 1.302-.335 1.302-1.194v-.933c0-.858-.464-1.194-1.301-1.194h-2.64z"/><path d="M106.613 44.096H96.09v-2.77h5.907V33.89h-5.509v-2.77h7.45c.97 0 1.457.528 1.457 1.585v8.621h1.218v2.77zm12.884 0h-5.93v-2.77h2.495V33.89h-3.254l-1.314 10.207h-3.423v-.072l1.398-10.135h-1.422v-2.77h9.232c1.48 0 2.218.742 2.218 2.225v10.751zm2.472 0h3.435V31.12h-3.435zm15.729-10.775c0 .25-.077.573-.23.968l-3.844 9.807h-3.532v-.303l4.026-9.904h-6.846V28h3.435v3.096h6.99v2.225zm2.062 10.775h3.434V31.12h-3.435zm14.86 0h-3.387l-.94-4.353h-.783l-1.53 4.353h-3.436v-.35l1.929-5.128c.144-.395.29-.637.44-.725.148-.09.403-.133.765-.133h2.205l-.843-3.87h-2.471v-2.77h4.122c.466 0 .806.083 1.019.248.212.166.367.47.463.913l2.447 11.815zm5.35 12.311a.985.985 0 00-1.396 0l-13.655 13.7-.004-.018-11.54 11.578c-.002.01-.005.018-.006.028l-3.91 3.924c-.667.13-1.41.208-2.275.208h-3.264c-4.603 0-6.278-1.848-6.278-5.458v-3.611c0-3.611 1.675-5.458 6.278-5.458h3.264c3.872 0 5.666 1.312 6.14 3.877l9.51-9.541c-2.614-3.312-7.287-4.748-14.897-4.748h-4.77c-13.308 0-17.66 4.365-17.66 15.534v2.603c0 7.222 1.673 10.665 6.863 11.925-5.022.84-7.281 3.947-7.281 10.916v3.947c0 1.457.09 2.778.252 4.003l-14.601 14.65a.994.994 0 00.699 1.693.985.985 0 00.698-.29l13.643-13.69.004.023 11.46-11.499c0-.01.003-.02.003-.028l4.666-4.682a13.58 13.58 0 011.588-.089h4.101c4.604 0 6.278 1.847 6.278 5.458v4.115c0 3.61-1.674 5.458-6.278 5.458h-4.1c-3.844 0-5.64-1.292-6.13-3.818l-9.491 9.523c2.619 3.284 7.286 4.708 14.867 4.708h5.607c13.308 0 17.66-4.366 17.66-15.535v-3.947c0-6.969-2.26-10.076-7.281-10.916 5.188-1.26 6.863-4.703 6.863-11.925v-2.603c0-1.434-.087-2.736-.246-3.946l14.62-14.667a.994.994 0 000-1.402" fill="#FFF"/></g></svg>