<svg xmlns="http://www.w3.org/2000/svg" width="82.626" height="82.627" viewBox="0 0 82.626 82.627"><path d="M5.206 19.956l.199 42.771c.003.55.306 1.054.789 1.314l34.161 17.887c.223.119.467.179.711.179h.003c.103.117.218.227.355.309a1.498 1.498 0 001.481.031l33.729-18.292c.484-.263.787-.77.787-1.319v-44.5c0-.013-.005-.025-.005-.039-.001-.011.003-.021.003-.033-.002-.043-.019-.082-.022-.124-.013-.082-.022-.164-.047-.243-.018-.055-.041-.104-.064-.157a1.387 1.387 0 00-.104-.203c-.031-.05-.068-.095-.105-.141a1.406 1.406 0 00-.293-.274c-.032-.022-.059-.053-.094-.073-.032-.02-.069-.028-.104-.045-.029-.015-.052-.036-.081-.049L41.747.118a1.503 1.503 0 00-1.258.042L6.131 18.071c-.504.254-.822.77-.825 1.333 0 .009.004.017.004.025a1.512 1.512 0 00-.104.527zm67.25-1.455l-30.28 16.93-32.065-16.006L41.218 3.151l31.238 15.35zM43.692 78.61V38.021l30.729-17.173v41.09L43.692 78.61z"/></svg>