<svg width="170" height="166" viewBox="0 0 170 166" xmlns="http://www.w3.org/2000/svg"><g fill="none" fill-rule="evenodd"><text class="colored" font-size="12" transform="translate(0 -1)"><tspan x="82" y="12">צ׳</tspan></text><text font-size="12" transform="translate(0 -1)"><tspan x="154.5" y="86">מז׳</tspan></text><text font-size="12" transform="translate(0 -1)"><tspan x="0" y="86">מע׳</tspan></text><text font-size="12" transform="translate(0 -1)"><tspan x="82" y="162">ד</tspan> <tspan x="83.857" y="174">׳</tspan></text><path d="M87.213 20.015a1.58 1.58 0 011.352 1.351l5.984 43.88 16.048-11.04a1.58 1.58 0 012.196 2.197l-11.04 16.046 43.88 5.986a1.58 1.58 0 010 3.13l-43.88 5.984 11.04 16.048a1.58 1.58 0 01-2.196 2.196l-16.048-11.04-5.984 43.88a1.58 1.58 0 01-3.13 0l-5.986-43.88-16.046 11.04a1.58 1.58 0 01-2.196-2.196l11.04-16.048-43.88-5.984a1.58 1.58 0 010-3.13l43.88-5.986-11.04-16.046a1.58 1.58 0 012.196-2.196l16.046 11.04 5.986-43.88a1.58 1.58 0 011.778-1.352zM87 72.102a7.898 7.898 0 100 15.796 7.898 7.898 0 000-15.796z"/><path d="M39 86.378l3.421.466c3.108 18.793 17.942 33.627 36.735 36.735l.466 3.421c-21-3.014-37.608-19.623-40.622-40.622zM93.378 127l.466-3.421c18.793-3.108 33.627-17.942 36.735-36.735l3.421-.466c-3.014 21-19.623 37.608-40.622 40.622zM79.622 32l-.466 3.421C60.363 38.53 45.529 53.363 42.42 72.156l-3.42.466c3.014-21 19.623-37.608 40.622-40.622z"/><path class="colored" d="M134 72.622l-3.421-.466c-3.108-18.793-17.942-33.627-36.735-36.735L93.378 32c21 3.014 37.608 19.623 40.622 40.622zM87.243 33.728a.45.45 0 01.393.393l4.118 33.776A12.967 12.967 0 0087 67a12.98 12.98 0 00-4.29.725l4.032-33.604a.45.45 0 01.5-.393zm45.761 45.782a.45.45 0 01-.393.394l-33.776 4.119a12.97 12.97 0 00.897-4.755 12.98 12.98 0 00-.725-4.29l33.604 4.032a.45.45 0 01.393.5z"/><path d="M87.221 125.272a.45.45 0 01-.393-.393L82.71 91.103a12.95 12.95 0 004.755.897 12.98 12.98 0 004.29-.725l-4.032 33.604a.45.45 0 01-.5.393zM41.46 79.49a.45.45 0 01.393-.394l33.776-4.119a12.967 12.967 0 00-.897 4.755c0 1.503.255 2.947.725 4.29L41.853 79.99a.45.45 0 01-.393-.5zm68.14-21.552c.135.156.183.337.115.44L98.65 75.27a21.278 21.278 0 00-2.99-3.733 21.469 21.469 0 00-3.334-2.734l16.758-11.055c.123-.081.355.004.517.19zm-.893 43.718c-.156.135-.337.183-.44.115L91.376 90.705a21.278 21.278 0 003.733-2.99 21.469 21.469 0 002.734-3.334l11.055 16.758c.081.123-.004.354-.191.517z"/><path d="M64.46 57.923c.156-.136.338-.183.44-.116l16.891 11.066a21.278 21.278 0 00-3.733 2.99 21.469 21.469 0 00-2.734 3.335L64.27 58.439c-.08-.123.005-.354.191-.516zm.074 44.475c-.135-.156-.183-.337-.116-.44l11.066-16.891a21.278 21.278 0 002.991 3.733 21.469 21.469 0 003.334 2.734L65.051 102.59c-.124.081-.355-.004-.517-.19z"/></g></svg>