<svg viewBox="0 0 164 164" xmlns="http://www.w3.org/2000/svg"><g transform="translate(1 1)" fill="none" fill-rule="evenodd"><path d="M81 0c16.51 0 31.865 4.939 44.67 13.42A17.921 17.921 0 00124 21c0 9.941 8.059 18 18 18 2.602 0 5.075-.552 7.309-1.546C157.344 50.028 162 64.97 162 81c0 44.735-36.265 81-81 81S0 125.735 0 81 36.265 0 81 0z" stroke="#FFF"/><g fill-rule="nonzero" fill="#FFF"><path d="M105.023 143.219c.412 0 .763-.146 1.055-.438 3.43-3.711 5.283-5.71 5.559-5.996l.029-.03a.081.081 0 01.006-.005c.917-.917 1.375-2.02 1.375-3.313 0-1.291-.458-2.39-1.375-3.296a4.753 4.753 0 00-1.461-1.024 4.21 4.21 0 00-1.695-.336c-.552 0-1.133.183-1.743.547a8.764 8.764 0 00-1.742 1.39c-1.312-1.29-2.484-1.937-3.515-1.937-.615 0-1.183.1-1.704.297-.52.198-.994.51-1.421.938-.448.448-.79.963-1.024 1.547a4.682 4.682 0 00-.351 1.757c0 .589.117 1.175.351 1.758a4.583 4.583 0 001.024 1.547c.093.094.351.372.773.836.422.463.896.987 1.422 1.57l1.562 1.735a192.81 192.81 0 001.836 2.015c.282.292.628.438 1.04.438z"/><path d="M105.031 142.219a.478.478 0 01-.328-.125c-3.375-3.75-5.245-5.808-5.61-6.172a3.12 3.12 0 01-.241-.274 5.406 5.406 0 01-.22-.296 3.68 3.68 0 01-.343-.625 2.565 2.565 0 01-.117-.336 8.283 8.283 0 01-.086-.344 2.591 2.591 0 01-.055-.36 4.333 4.333 0 01-.015-.359c0-1.02.359-1.89 1.078-2.61.333-.322.698-.56 1.094-.71a3.7 3.7 0 011.328-.227c.76 0 1.698.552 2.812 1.656l.719.704.703-.72a5.96 5.96 0 01.492-.468c.172-.146.341-.281.508-.406.167-.125.33-.234.492-.328a5.72 5.72 0 01.461-.242c.146-.068.29-.118.43-.149a1.78 1.78 0 01.383-.047c.927 0 1.744.354 2.453 1.063.719.719 1.078 1.583 1.078 2.594 0 1.01-.36 1.88-1.078 2.609l-.02.018c-.21.215-2.074 2.225-5.59 6.029a.369.369 0 01-.171.101.668.668 0 01-.157.024z"/></g><g fill="#FFF" fill-rule="nonzero"><path d="M63.5 144a2.41 2.41 0 001.766-.734c.49-.49.734-1.078.734-1.766s-.245-1.276-.734-1.766A2.407 2.407 0 0063.5 139a2.41 2.41 0 00-1.133.273 2.49 2.49 0 00-.867.743l-6.594-3.36a2.271 2.271 0 00.055-1.07 2.968 2.968 0 00-.102-.399l6.625-3.218A2.457 2.457 0 0063.5 133a2.41 2.41 0 001.766-.734c.49-.49.734-1.078.734-1.766 0-.448-.112-.865-.336-1.25a2.482 2.482 0 00-.914-.914A2.445 2.445 0 0063.5 128c-.448 0-.865.112-1.25.336-.385.224-.69.529-.914.914A2.445 2.445 0 0061 130.5v.094l.002.047.012.093.002.047a.57.57 0 00.03.188.279.279 0 01.017.094l-6.72 3.265a2.431 2.431 0 00-1.843-.828c-.687 0-1.276.245-1.766.734A2.407 2.407 0 0050 136c0 .688.245 1.276.734 1.766.49.49 1.079.734 1.766.734.802 0 1.453-.318 1.953-.953l6.625 3.375c-.02.062-.036.125-.047.187a2.227 2.227 0 00-.031.391c0 .448.112.865.336 1.25.224.385.529.69.914.914.385.224.802.336 1.25.336z"/><path d="M63.5 132c-.417 0-.77-.146-1.063-.438A1.447 1.447 0 0162 130.5c0-.417.146-.77.438-1.063A1.447 1.447 0 0163.5 129c.417 0 .77.146 1.063.438.291.291.437.645.437 1.062 0 .417-.146.77-.438 1.063A1.447 1.447 0 0163.5 132zm-11 5.5c-.417 0-.77-.146-1.063-.438A1.447 1.447 0 0151 136c0-.417.146-.77.438-1.063a1.447 1.447 0 011.062-.437c.417 0 .77.146 1.063.438.291.291.437.645.437 1.062 0 .417-.146.77-.438 1.063a1.447 1.447 0 01-1.062.437zm11 5.5c-.417 0-.77-.146-1.063-.438A1.447 1.447 0 0162 141.5c0-.417.146-.77.438-1.063A1.447 1.447 0 0163.5 140c.417 0 .77.146 1.063.438.291.291.437.645.437 1.062 0 .417-.146.77-.438 1.063A1.447 1.447 0 0163.5 143z"/></g><circle stroke="#FFF" fill="#7ED321" cx="142" cy="21" r="8"/><path stroke="#FFF" stroke-linecap="square" d="M36 114.5h89.5m-44 12v20"/></g></svg>