<?xml version="1.0" encoding="UTF-8"?>
<svg width="381px" height="253px" viewBox="0 0 381 253" version="1.1" xmlns="http://www.w3.org/2000/svg" xmlns:xlink="http://www.w3.org/1999/xlink">
    
    <defs>
        <path d="M417.154469,0 L216.554602,207.145274 C215.850617,207.872231 215.117106,208.570001 214.355917,209.236824 C199.138903,222.567356 176.075797,221.186658 162.550803,206.243516 L162.143892,205.786543 L0,65.050849 L0,0 L417.154469,0 Z" id="path-2"></path>
        <filter x="-12.9%" y="-24.7%" width="125.9%" height="149.4%" filterUnits="objectBoundingBox" id="filter-3">
            <feOffset dx="0" dy="0" in="SourceAlpha" result="shadowOffsetOuter1"></feOffset>
            <feGaussianBlur stdDeviation="18" in="shadowOffsetOuter1" result="shadowBlurOuter1"></feGaussianBlur>
            <feColorMatrix values="0 0 0 0 0   0 0 0 0 0   0 0 0 0 0  0 0 0 0.5 0" type="matrix" in="shadowBlurOuter1"></feColorMatrix>
        </filter>
    </defs>
    <g id="UI-concept" stroke="none" stroke-width="1" fill="none" fill-rule="evenodd">
        <g id="Start/01">
            
            <g id="Group-7" transform="translate(-66.000000, 0.000000)">
                <g id="Path" opacity="0.5">
                    <use fill="black" fill-opacity="1" filter="url(#filter-3)" xlink:href="#path-2"></use>
                    <use fill="#001124" fill-rule="evenodd" xlink:href="#path-2"></use>
                </g>
                <g id="Group" transform="translate(154.855469, 28.000000)">
                    <path d="M9.89339944,119.689427 C9.89339944,122.992624 9.00092966,124 5.57855593,124 L4.31422374,124 C0.892469786,124 -1.0458872e-14,122.992624 -1.0458872e-14,119.689427 L-1.0458872e-14,114.876409 C-1.0458872e-14,111.573211 0.892469786,110.565835 4.31422374,110.565835 L5.57855593,110.565835 C9.00092966,110.565835 9.89339944,111.573211 9.89339944,114.876409 L9.89339944,115.603336 L7.14099783,115.603336 L7.14099783,114.912475 C7.14099783,113.271448 6.76913542,112.897724 5.43043074,112.897724 L4.4629687,112.897724 C3.12364425,112.897724 2.75240161,113.271448 2.75240161,114.912475 L2.75240161,119.652738 C2.75240161,121.294388 3.12364425,121.668112 4.4629687,121.668112 L5.43043074,121.668112 C6.76913542,121.668112 7.14099783,121.294388 7.14099783,119.652738 L7.14099783,118.831292 L5.3002789,118.831292 L5.3002789,116.759953 L9.89339944,116.759953 L9.89339944,119.689427 Z" id="Fill-1" fill="#FFFFFF"></path>
                    <path d="M9.89339944,119.689427 C9.89339944,122.992624 9.00092966,124 5.57855593,124 L4.31422374,124 C0.892469786,124 -1.0458872e-14,122.992624 -1.0458872e-14,119.689427 L-1.0458872e-14,114.876409 C-1.0458872e-14,111.573211 0.892469786,110.565835 4.31422374,110.565835 L5.57855593,110.565835 C9.00092966,110.565835 9.89339944,111.573211 9.89339944,114.876409 L9.89339944,115.603336 L7.14099783,115.603336 L7.14099783,114.912475 C7.14099783,113.271448 6.76913542,112.897724 5.43043074,112.897724 L4.4629687,112.897724 C3.12364425,112.897724 2.75240161,113.271448 2.75240161,114.912475 L2.75240161,119.652738 C2.75240161,121.294388 3.12364425,121.668112 4.4629687,121.668112 L5.43043074,121.668112 C6.76913542,121.668112 7.14099783,121.294388 7.14099783,119.652738 L7.14099783,118.831292 L5.3002789,118.831292 L5.3002789,116.759953 L9.89339944,116.759953 L9.89339944,119.689427 Z" id="Stroke-3"></path>
                    <path d="M12.3696312,114.876285 C12.3696312,111.573087 13.262101,110.565711 16.683855,110.565711 L17.9488069,110.565711 C21.3705609,110.565711 22.2630307,111.573087 22.2630307,114.876285 L22.2630307,119.689302 C22.2630307,122.9925 21.3705609,123.999876 17.9488069,123.999876 L16.683855,123.999876 C13.262101,123.999876 12.3696312,122.9925 12.3696312,119.689302 L12.3696312,114.876285 Z M15.1220328,119.653236 C15.1220328,121.294263 15.4932755,121.667987 16.8325999,121.667987 L17.800062,121.667987 C19.1387667,121.667987 19.5106291,121.294263 19.5106291,119.653236 L19.5106291,114.912973 C19.5106291,113.271323 19.1387667,112.8976 17.800062,112.8976 L16.8325999,112.8976 C15.4932755,112.8976 15.1220328,113.271323 15.1220328,114.912973 L15.1220328,119.653236 Z" id="Fill-5" fill="#FFFFFF"></path>
                    <path d="M12.3696312,114.876285 C12.3696312,111.573087 13.262101,110.565711 16.683855,110.565711 L17.9488069,110.565711 C21.3705609,110.565711 22.2630307,111.573087 22.2630307,114.876285 L22.2630307,119.689302 C22.2630307,122.9925 21.3705609,123.999876 17.9488069,123.999876 L16.683855,123.999876 C13.262101,123.999876 12.3696312,122.9925 12.3696312,119.689302 L12.3696312,114.876285 Z M15.1220328,119.653236 C15.1220328,121.294263 15.4932755,121.667987 16.8325999,121.667987 L17.800062,121.667987 C19.1387667,121.667987 19.5106291,121.294263 19.5106291,119.653236 L19.5106291,114.912973 C19.5106291,113.271323 19.1387667,112.8976 17.800062,112.8976 L16.8325999,112.8976 C15.4932755,112.8976 15.1220328,113.271323 15.1220328,114.912973 L15.1220328,119.653236 Z" id="Stroke-7"></path>
                    <polygon id="Fill-10" fill="#FFFFFF" points="27.6875736 110.733545 27.6875736 121.481374 33.0250387 121.481374 33.0250387 123.831917 24.935172 123.831917 24.935172 110.733545"></polygon>
                    <polygon id="Stroke-11" points="27.6875736 110.733545 27.6875736 121.481374 33.0250387 121.481374 33.0250387 123.831917 24.935172 123.831917 24.935172 110.733545"></polygon>
                    <path d="M35.1330648,114.876285 C35.1330648,111.573087 36.0255346,110.565711 39.4472885,110.565711 L40.7116207,110.565711 C44.1339944,110.565711 45.0264642,111.573087 45.0264642,114.876285 L45.0264642,119.689302 C45.0264642,122.9925 44.1339944,123.999876 40.7116207,123.999876 L39.4472885,123.999876 C36.0255346,123.999876 35.1330648,122.9925 35.1330648,119.689302 L35.1330648,114.876285 Z M37.8854664,119.653236 C37.8854664,121.294263 38.2573288,121.667987 39.5960335,121.667987 L40.5634955,121.667987 C41.9022002,121.667987 42.2746824,121.294263 42.2746824,119.653236 L42.2746824,114.912973 C42.2746824,113.271323 41.9022002,112.8976 40.5634955,112.8976 L39.5960335,112.8976 C38.2573288,112.8976 37.8854664,113.271323 37.8854664,114.912973 L37.8854664,119.653236 Z" id="Fill-12" fill="#FFFFFF"></path>
                    <path d="M35.1330648,114.876285 C35.1330648,111.573087 36.0255346,110.565711 39.4472885,110.565711 L40.7116207,110.565711 C44.1339944,110.565711 45.0264642,111.573087 45.0264642,114.876285 L45.0264642,119.689302 C45.0264642,122.9925 44.1339944,123.999876 40.7116207,123.999876 L39.4472885,123.999876 C36.0255346,123.999876 35.1330648,122.9925 35.1330648,119.689302 L35.1330648,114.876285 Z M37.8854664,119.653236 C37.8854664,121.294263 38.2573288,121.667987 39.5960335,121.667987 L40.5634955,121.667987 C41.9022002,121.667987 42.2746824,121.294263 42.2746824,119.653236 L42.2746824,114.912973 C42.2746824,113.271323 41.9022002,112.8976 40.5634955,112.8976 L39.5960335,112.8976 C38.2573288,112.8976 37.8854664,113.271323 37.8854664,114.912973 L37.8854664,119.653236 Z" id="Stroke-14"></path>
                    <polygon id="Fill-17" fill="#FFFFFF" points="53.667555 122.65621 50.4503254 116.088991 50.4503254 123.832104 47.6979238 123.832104 47.6979238 110.733731 50.4503254 110.733731 54.281128 118.664018 58.1125504 110.733731 60.864952 110.733731 60.864952 123.832104 58.1125504 123.832104 58.1125504 116.088991 54.8953207 122.65621"></polygon>
                    <polygon id="Stroke-18" points="53.667555 122.65621 50.4503254 116.088991 50.4503254 123.832104 47.6979238 123.832104 47.6979238 110.733731 50.4503254 110.733731 54.281128 118.664018 58.1125504 110.733731 60.864952 110.733731 60.864952 123.832104 58.1125504 123.832104 58.1125504 116.088991 54.8953207 122.65621"></polygon>
                    <path d="M63.7381469,123.832166 L63.7381469,110.733794 L69.0384258,110.733794 C71.6978618,110.733794 72.813449,111.77848 72.813449,113.793231 L72.813449,115.0624 C72.813449,116.350225 72.3114348,116.983876 71.3625659,117.227636 C72.4229935,117.394911 73,118.08515 73,119.521593 L73,120.772729 C73,122.805513 71.883793,123.832166 69.224357,123.832166 L63.7381469,123.832166 Z M68.8524946,116.181707 C69.689185,116.181707 70.154013,115.846537 70.154013,114.987158 L70.154013,114.18561 C70.154013,113.326854 69.689185,112.991683 68.8524946,112.991683 L66.3975829,112.991683 L66.3975829,116.181707 L68.8524946,116.181707 Z M66.3975829,118.253045 L66.3975829,121.574276 L69.0384258,121.574276 C69.8751162,121.574276 70.3399442,121.239106 70.3399442,120.379728 L70.3399442,119.446972 C70.3399442,118.588837 69.8751162,118.253045 69.0384258,118.253045 L66.3975829,118.253045 Z" id="Fill-19" fill="#FFFFFF"></path>
                    <path d="M63.7381469,123.832166 L63.7381469,110.733794 L69.0384258,110.733794 C71.6978618,110.733794 72.813449,111.77848 72.813449,113.793231 L72.813449,115.0624 C72.813449,116.350225 72.3114348,116.983876 71.3625659,117.227636 C72.4229935,117.394911 73,118.08515 73,119.521593 L73,120.772729 C73,122.805513 71.883793,123.832166 69.224357,123.832166 L63.7381469,123.832166 Z M68.8524946,116.181707 C69.689185,116.181707 70.154013,115.846537 70.154013,114.987158 L70.154013,114.18561 C70.154013,113.326854 69.689185,112.991683 68.8524946,112.991683 L66.3975829,112.991683 L66.3975829,116.181707 L68.8524946,116.181707 Z M66.3975829,118.253045 L66.3975829,121.574276 L69.0384258,121.574276 C69.8751162,121.574276 70.3399442,121.239106 70.3399442,120.379728 L70.3399442,119.446972 C70.3399442,118.588837 69.8751162,118.253045 69.0384258,118.253045 L66.3975829,118.253045 Z" id="Stroke-21"></path>
                    <path d="M17.7571738,16.0960618 L7.23470716,16.0960618 L7.23470716,13.3264002 L13.1411218,13.3264002 L13.1411218,5.88923079 L7.63259994,5.88923079 L7.63259994,3.12019104 L15.0816238,3.12019104 C16.0534242,3.12019104 16.5399442,3.64813058 16.5399442,4.70463148 L16.5399442,13.3264002 L17.7571738,13.3264002 L17.7571738,16.0960618 Z" id="Fill-23" fill="#FFFFFF"></path>
                    <path d="M30.6420205,16.0960618 L24.7120545,16.0960618 L24.7120545,13.3264002 L27.2066315,13.3264002 L27.2066315,5.88923079 L23.9522157,5.88923079 L22.6389216,16.0960618 L19.2153083,16.0960618 L19.2153083,16.0239287 L20.613511,5.88923079 L19.191757,5.88923079 L19.191757,3.12019104 L28.4238612,3.12019104 C29.902634,3.12019104 30.6420205,3.86204247 30.6420205,5.34512349 L30.6420205,16.0960618 Z" id="Fill-25" fill="#FFFFFF"></path>
                    <polygon id="Fill-28" fill="#FFFFFF" points="33.1132941 16.0961861 36.5480632 16.0961861 36.5480632 3.12031541 33.1132941 3.12031541"></polygon>
                    <path d="M48.8421444,5.32105841 C48.8421444,5.57103684 48.7659126,5.8937702 48.613449,6.28863663 L44.7683917,16.0962483 L41.2369383,16.0962483 L41.2369383,15.7934137 L45.2623489,5.88941734 L38.4163619,5.88941734 L38.4163619,-8.83683393e-15 L41.8517509,-8.83683393e-15 L41.8517509,3.09550412 L48.8421444,3.09550412 L48.8421444,5.32105841 Z" id="Fill-29" fill="#FFFFFF"></path>
                    <polygon id="Fill-31" fill="#FFFFFF" points="50.9038116 16.0961861 54.3385807 16.0961861 54.3385807 3.12031541 50.9038116 3.12031541"></polygon>
                    <path d="M65.764735,16.0960618 L62.3776883,16.0960618 L61.4381159,11.7425816 L60.654106,11.7425816 L59.1238922,16.0960618 L55.6885033,16.0960618 L55.6885033,15.7453458 L57.6172296,10.6183005 C57.7616362,10.2228122 57.9079021,9.98091763 58.056647,9.89261679 C58.205392,9.80369411 58.4607375,9.75954369 58.8220638,9.75954369 L61.0278277,9.75954369 L60.1843198,5.88923079 L57.7132941,5.88923079 L57.7132941,3.12019104 L61.8353889,3.12019104 C62.3014565,3.12019104 62.6410908,3.20289535 62.8542919,3.36830397 C63.0668733,3.53371259 63.2218159,3.83779083 63.3178804,4.28116055 L65.764735,16.0960618 Z" id="Fill-32" fill="#FFFFFF"></path>
                    <path d="M71.1151534,28.406567 C70.7290363,28.0191626 70.1036876,28.0191626 69.7181903,28.406567 L56.0634025,42.1068777 C56.0615432,42.1012812 56.0609235,42.0950628 56.0590641,42.0888444 L44.5195538,53.6674476 C44.5176945,53.677397 44.5145956,53.6854809 44.5133561,53.6954303 L40.6032228,57.6185993 C39.9363496,57.7485633 39.1938643,57.8269147 38.3280446,57.8269147 L35.0643322,57.8269147 C30.4612953,57.8269147 28.7866749,55.9794373 28.7866749,52.3690522 L28.7866749,48.7580453 C28.7866749,45.1470384 30.4612953,43.3001827 35.0643322,43.3001827 L38.3280446,43.3001827 C42.2003719,43.3001827 43.994608,44.6122586 44.4681128,47.176714 L53.9778742,37.6358704 C51.3643012,34.323967 46.69185,32.8875237 39.0816858,32.8875237 L34.310691,32.8875237 C21.0035947,32.8875237 16.6515649,37.2534407 16.6515649,48.4222533 L16.6515649,51.0252626 C16.6515649,58.2466546 18.3249458,61.6903874 23.5142857,62.9496071 C18.4929036,63.7897088 16.2332197,66.8970278 16.2332197,73.865954 L16.2332197,77.8127529 C16.2332197,79.2697167 16.3230865,80.5911202 16.4854664,81.8161389 L1.88428881,96.4659945 C1.49817168,96.8533989 1.49817168,97.4808324 1.88428881,97.8682368 C2.07765727,98.061628 2.33052371,98.1586346 2.58339015,98.1586346 C2.83563681,98.1586346 3.08850325,98.061628 3.28187171,97.8682368 L16.924264,84.179741 C16.9261233,84.1865812 16.9273629,84.194665 16.9286024,84.2015052 L28.3887822,72.703119 C28.3894019,72.6931696 28.3912612,72.6838421 28.391881,72.6745145 L33.0575147,67.9927044 C33.5440347,67.9354955 34.07022,67.9044036 34.645987,67.9044036 L38.7470096,67.9044036 C43.3500465,67.9044036 45.0240471,69.7512592 45.0240471,73.3622661 L45.0240471,77.4769609 C45.0240471,81.087346 43.3500465,82.9348235 38.7470096,82.9348235 L34.645987,82.9348235 C30.802789,82.9348235 29.0066935,81.6426464 28.5164549,79.1167449 L19.0252866,88.6401771 C21.6444376,91.9240978 26.3119306,93.3481043 33.8923458,93.3481043 L39.500031,93.3481043 C52.8071274,93.3481043 57.1591571,88.9815655 57.1591571,77.8127529 L57.1591571,73.865954 C57.1591571,66.8970278 54.8994732,63.7897088 49.8780911,62.9496071 C55.0668113,61.6903874 56.7414317,58.2466546 56.7414317,51.0252626 L56.7414317,48.4222533 C56.7414317,46.9882974 56.654044,45.6855491 56.4960025,44.4760763 L71.1151534,29.8088092 C71.5012705,29.4214048 71.5012705,28.7939714 71.1151534,28.406567" id="Fill-34" fill="#FFFFFF"></path>
                </g>
            </g>
        </g>
    </g>
</svg>